<mxfile host="app.diagrams.net" agent="Mozilla/5.0 (Windows NT 10.0; Win64; x64) AppleWebKit/537.36 (KHTML, like Gecko) Chrome/134.0.0.0 Safari/537.36 Edg/134.0.0.0" version="26.1.1">
  <diagram id="C5RBs43oDa-KdzZeNtuy" name="Page-1">
    <mxGraphModel dx="624" dy="751" grid="1" gridSize="10" guides="1" tooltips="1" connect="1" arrows="1" fold="1" page="1" pageScale="1" pageWidth="827" pageHeight="1169" math="0" shadow="0">
      <root>
        <mxCell id="WIyWlLk6GJQsqaUBKTNV-0" />
        <mxCell id="WIyWlLk6GJQsqaUBKTNV-1" parent="WIyWlLk6GJQsqaUBKTNV-0" />
        <mxCell id="zkfFHV4jXpPFQw0GAbJ--0" value="&lt;&lt;dataType&gt;&gt;&#xa;DataStruct&#xa;{class}" style="swimlane;fontStyle=2;align=center;verticalAlign=top;childLayout=stackLayout;horizontal=1;startSize=60;horizontalStack=0;resizeParent=1;resizeLast=0;collapsible=1;marginBottom=0;rounded=0;shadow=0;strokeWidth=1;fillColor=#e1d5e7;strokeColor=#9673a6;fontFamily=Courier New;" parent="WIyWlLk6GJQsqaUBKTNV-1" vertex="1">
          <mxGeometry x="338" y="10" width="300" height="290" as="geometry">
            <mxRectangle x="220" y="80" width="160" height="26" as="alternateBounds" />
          </mxGeometry>
        </mxCell>
        <mxCell id="zkfFHV4jXpPFQw0GAbJ--1" value="- table: string&#xa;- id_alias: string&#xa;- excluded_fields: list[string]&#xa;- lifespan: int&#xa;- lifespan_attr: int&#xa;&#xa;+ id: string" style="text;align=left;verticalAlign=top;spacingLeft=4;spacingRight=4;overflow=hidden;rotatable=0;points=[[0,0.5],[1,0.5]];portConstraint=eastwest;fontFamily=Courier New;" parent="zkfFHV4jXpPFQw0GAbJ--0" vertex="1">
          <mxGeometry y="60" width="300" height="110" as="geometry" />
        </mxCell>
        <mxCell id="zkfFHV4jXpPFQw0GAbJ--4" value="" style="line;html=1;strokeWidth=1;align=left;verticalAlign=middle;spacingTop=-1;spacingLeft=3;spacingRight=3;rotatable=0;labelPosition=right;points=[];portConstraint=eastwest;" parent="zkfFHV4jXpPFQw0GAbJ--0" vertex="1">
          <mxGeometry y="170" width="300" height="8" as="geometry" />
        </mxCell>
        <mxCell id="zkfFHV4jXpPFQw0GAbJ--5" value="- is_in_db(): bool&#xa;- load_from_db(): DataStruct&#xa;- load_all_from_db(): list[DataStruct]&#xa;- purge_db(): void&#xa;&#xa;+ get_table_vars(): tuple&#xa;+ insert_into_db(): void" style="text;align=left;verticalAlign=top;spacingLeft=4;spacingRight=4;overflow=hidden;rotatable=0;points=[[0,0.5],[1,0.5]];portConstraint=eastwest;fontFamily=Courier New;" parent="zkfFHV4jXpPFQw0GAbJ--0" vertex="1">
          <mxGeometry y="178" width="300" height="112" as="geometry" />
        </mxCell>
        <mxCell id="gIUdPoAB92ztzNn0mDoF-13" value="LEGEND - PROPERTIES" style="shape=table;startSize=30;container=1;collapsible=0;childLayout=tableLayout;enumerate=0;fontFamily=Courier New;" vertex="1" parent="WIyWlLk6GJQsqaUBKTNV-1">
          <mxGeometry x="10" y="10" width="190" height="120" as="geometry" />
        </mxCell>
        <mxCell id="gIUdPoAB92ztzNn0mDoF-14" value="" style="shape=tableRow;horizontal=0;startSize=0;swimlaneHead=0;swimlaneBody=0;strokeColor=inherit;top=0;left=0;bottom=0;right=0;collapsible=0;dropTarget=0;fillColor=none;points=[[0,0.5],[1,0.5]];portConstraint=eastwest;" vertex="1" parent="gIUdPoAB92ztzNn0mDoF-13">
          <mxGeometry y="30" width="190" height="30" as="geometry" />
        </mxCell>
        <mxCell id="gIUdPoAB92ztzNn0mDoF-15" value="&lt;font face=&quot;Courier New&quot;&gt;-&lt;/font&gt;" style="shape=partialRectangle;html=1;whiteSpace=wrap;connectable=0;strokeColor=inherit;overflow=hidden;fillColor=none;top=0;left=0;bottom=0;right=0;pointerEvents=1;" vertex="1" parent="gIUdPoAB92ztzNn0mDoF-14">
          <mxGeometry width="25" height="30" as="geometry">
            <mxRectangle width="25" height="30" as="alternateBounds" />
          </mxGeometry>
        </mxCell>
        <mxCell id="gIUdPoAB92ztzNn0mDoF-16" value="&lt;font face=&quot;Courier New&quot;&gt;&amp;nbsp;CLASS&amp;nbsp;&lt;/font&gt;&lt;span style=&quot;font-family: &amp;quot;Courier New&amp;quot;;&quot;&gt;PROPERTY&lt;/span&gt;" style="shape=partialRectangle;html=1;whiteSpace=wrap;connectable=0;strokeColor=inherit;overflow=hidden;fillColor=none;top=0;left=0;bottom=0;right=0;pointerEvents=1;align=left;" vertex="1" parent="gIUdPoAB92ztzNn0mDoF-14">
          <mxGeometry x="25" width="165" height="30" as="geometry">
            <mxRectangle width="165" height="30" as="alternateBounds" />
          </mxGeometry>
        </mxCell>
        <mxCell id="gIUdPoAB92ztzNn0mDoF-17" value="" style="shape=tableRow;horizontal=0;startSize=0;swimlaneHead=0;swimlaneBody=0;strokeColor=inherit;top=0;left=0;bottom=0;right=0;collapsible=0;dropTarget=0;fillColor=none;points=[[0,0.5],[1,0.5]];portConstraint=eastwest;" vertex="1" parent="gIUdPoAB92ztzNn0mDoF-13">
          <mxGeometry y="60" width="190" height="30" as="geometry" />
        </mxCell>
        <mxCell id="gIUdPoAB92ztzNn0mDoF-18" value="&lt;font face=&quot;Courier New&quot;&gt;+&lt;/font&gt;" style="shape=partialRectangle;html=1;whiteSpace=wrap;connectable=0;strokeColor=inherit;overflow=hidden;fillColor=none;top=0;left=0;bottom=0;right=0;pointerEvents=1;" vertex="1" parent="gIUdPoAB92ztzNn0mDoF-17">
          <mxGeometry width="25" height="30" as="geometry">
            <mxRectangle width="25" height="30" as="alternateBounds" />
          </mxGeometry>
        </mxCell>
        <mxCell id="gIUdPoAB92ztzNn0mDoF-19" value="&lt;span style=&quot;font-family: &amp;quot;Courier New&amp;quot;;&quot;&gt;&amp;nbsp;INSTANCE PROPERTY&lt;/span&gt;" style="shape=partialRectangle;html=1;whiteSpace=wrap;connectable=0;strokeColor=inherit;overflow=hidden;fillColor=none;top=0;left=0;bottom=0;right=0;pointerEvents=1;align=left;" vertex="1" parent="gIUdPoAB92ztzNn0mDoF-17">
          <mxGeometry x="25" width="165" height="30" as="geometry">
            <mxRectangle width="165" height="30" as="alternateBounds" />
          </mxGeometry>
        </mxCell>
        <mxCell id="gIUdPoAB92ztzNn0mDoF-22" style="shape=tableRow;horizontal=0;startSize=0;swimlaneHead=0;swimlaneBody=0;strokeColor=inherit;top=0;left=0;bottom=0;right=0;collapsible=0;dropTarget=0;fillColor=none;points=[[0,0.5],[1,0.5]];portConstraint=eastwest;" vertex="1" parent="gIUdPoAB92ztzNn0mDoF-13">
          <mxGeometry y="90" width="190" height="30" as="geometry" />
        </mxCell>
        <mxCell id="gIUdPoAB92ztzNn0mDoF-23" value="&lt;font style=&quot;&quot; face=&quot;Courier New&quot;&gt;i&lt;/font&gt;" style="shape=partialRectangle;html=1;whiteSpace=wrap;connectable=0;strokeColor=inherit;overflow=hidden;fillColor=none;top=0;left=0;bottom=0;right=0;pointerEvents=1;" vertex="1" parent="gIUdPoAB92ztzNn0mDoF-22">
          <mxGeometry width="25" height="30" as="geometry">
            <mxRectangle width="25" height="30" as="alternateBounds" />
          </mxGeometry>
        </mxCell>
        <mxCell id="gIUdPoAB92ztzNn0mDoF-24" value="&lt;font face=&quot;Courier New&quot;&gt;&amp;nbsp;INHERITED&amp;nbsp;&lt;/font&gt;&lt;span style=&quot;font-family: &amp;quot;Courier New&amp;quot;;&quot;&gt;PROPERTY&lt;/span&gt;" style="shape=partialRectangle;html=1;whiteSpace=wrap;connectable=0;strokeColor=inherit;overflow=hidden;fillColor=none;top=0;left=0;bottom=0;right=0;pointerEvents=1;align=left;" vertex="1" parent="gIUdPoAB92ztzNn0mDoF-22">
          <mxGeometry x="25" width="165" height="30" as="geometry">
            <mxRectangle width="165" height="30" as="alternateBounds" />
          </mxGeometry>
        </mxCell>
        <mxCell id="gIUdPoAB92ztzNn0mDoF-25" value="LEGEND - METHODS" style="shape=table;startSize=30;container=1;collapsible=0;childLayout=tableLayout;enumerate=0;fontFamily=Courier New;" vertex="1" parent="WIyWlLk6GJQsqaUBKTNV-1">
          <mxGeometry x="10" y="140" width="190" height="150" as="geometry" />
        </mxCell>
        <mxCell id="gIUdPoAB92ztzNn0mDoF-26" value="" style="shape=tableRow;horizontal=0;startSize=0;swimlaneHead=0;swimlaneBody=0;strokeColor=inherit;top=0;left=0;bottom=0;right=0;collapsible=0;dropTarget=0;fillColor=none;points=[[0,0.5],[1,0.5]];portConstraint=eastwest;" vertex="1" parent="gIUdPoAB92ztzNn0mDoF-25">
          <mxGeometry y="30" width="190" height="30" as="geometry" />
        </mxCell>
        <mxCell id="gIUdPoAB92ztzNn0mDoF-27" value="&lt;font face=&quot;Courier New&quot;&gt;/&lt;/font&gt;" style="shape=partialRectangle;html=1;whiteSpace=wrap;connectable=0;strokeColor=inherit;overflow=hidden;fillColor=none;top=0;left=0;bottom=0;right=0;pointerEvents=1;" vertex="1" parent="gIUdPoAB92ztzNn0mDoF-26">
          <mxGeometry width="25" height="30" as="geometry">
            <mxRectangle width="25" height="30" as="alternateBounds" />
          </mxGeometry>
        </mxCell>
        <mxCell id="gIUdPoAB92ztzNn0mDoF-28" value="&lt;span style=&quot;font-family: &amp;quot;Courier New&amp;quot;;&quot;&gt;&amp;nbsp;STATIC METHOD&lt;/span&gt;" style="shape=partialRectangle;html=1;whiteSpace=wrap;connectable=0;strokeColor=inherit;overflow=hidden;fillColor=none;top=0;left=0;bottom=0;right=0;pointerEvents=1;align=left;" vertex="1" parent="gIUdPoAB92ztzNn0mDoF-26">
          <mxGeometry x="25" width="165" height="30" as="geometry">
            <mxRectangle width="165" height="30" as="alternateBounds" />
          </mxGeometry>
        </mxCell>
        <mxCell id="gIUdPoAB92ztzNn0mDoF-29" value="" style="shape=tableRow;horizontal=0;startSize=0;swimlaneHead=0;swimlaneBody=0;strokeColor=inherit;top=0;left=0;bottom=0;right=0;collapsible=0;dropTarget=0;fillColor=none;points=[[0,0.5],[1,0.5]];portConstraint=eastwest;" vertex="1" parent="gIUdPoAB92ztzNn0mDoF-25">
          <mxGeometry y="60" width="190" height="30" as="geometry" />
        </mxCell>
        <mxCell id="gIUdPoAB92ztzNn0mDoF-30" value="&lt;font face=&quot;Courier New&quot;&gt;-&lt;/font&gt;" style="shape=partialRectangle;html=1;whiteSpace=wrap;connectable=0;strokeColor=inherit;overflow=hidden;fillColor=none;top=0;left=0;bottom=0;right=0;pointerEvents=1;" vertex="1" parent="gIUdPoAB92ztzNn0mDoF-29">
          <mxGeometry width="25" height="30" as="geometry">
            <mxRectangle width="25" height="30" as="alternateBounds" />
          </mxGeometry>
        </mxCell>
        <mxCell id="gIUdPoAB92ztzNn0mDoF-31" value="&lt;font face=&quot;Courier New&quot;&gt;&amp;nbsp;CLASS METHOD&lt;/font&gt;" style="shape=partialRectangle;html=1;whiteSpace=wrap;connectable=0;strokeColor=inherit;overflow=hidden;fillColor=none;top=0;left=0;bottom=0;right=0;pointerEvents=1;align=left;" vertex="1" parent="gIUdPoAB92ztzNn0mDoF-29">
          <mxGeometry x="25" width="165" height="30" as="geometry">
            <mxRectangle width="165" height="30" as="alternateBounds" />
          </mxGeometry>
        </mxCell>
        <mxCell id="gIUdPoAB92ztzNn0mDoF-32" style="shape=tableRow;horizontal=0;startSize=0;swimlaneHead=0;swimlaneBody=0;strokeColor=inherit;top=0;left=0;bottom=0;right=0;collapsible=0;dropTarget=0;fillColor=none;points=[[0,0.5],[1,0.5]];portConstraint=eastwest;" vertex="1" parent="gIUdPoAB92ztzNn0mDoF-25">
          <mxGeometry y="90" width="190" height="30" as="geometry" />
        </mxCell>
        <mxCell id="gIUdPoAB92ztzNn0mDoF-33" value="&lt;font face=&quot;Courier New&quot;&gt;+&lt;/font&gt;" style="shape=partialRectangle;html=1;whiteSpace=wrap;connectable=0;strokeColor=inherit;overflow=hidden;fillColor=none;top=0;left=0;bottom=0;right=0;pointerEvents=1;" vertex="1" parent="gIUdPoAB92ztzNn0mDoF-32">
          <mxGeometry width="25" height="30" as="geometry">
            <mxRectangle width="25" height="30" as="alternateBounds" />
          </mxGeometry>
        </mxCell>
        <mxCell id="gIUdPoAB92ztzNn0mDoF-34" value="&lt;span style=&quot;font-family: &amp;quot;Courier New&amp;quot;;&quot;&gt;&amp;nbsp;INSTANCE METHOD&lt;/span&gt;" style="shape=partialRectangle;html=1;whiteSpace=wrap;connectable=0;strokeColor=inherit;overflow=hidden;fillColor=none;top=0;left=0;bottom=0;right=0;pointerEvents=1;align=left;" vertex="1" parent="gIUdPoAB92ztzNn0mDoF-32">
          <mxGeometry x="25" width="165" height="30" as="geometry">
            <mxRectangle width="165" height="30" as="alternateBounds" />
          </mxGeometry>
        </mxCell>
        <mxCell id="gIUdPoAB92ztzNn0mDoF-35" style="shape=tableRow;horizontal=0;startSize=0;swimlaneHead=0;swimlaneBody=0;strokeColor=inherit;top=0;left=0;bottom=0;right=0;collapsible=0;dropTarget=0;fillColor=none;points=[[0,0.5],[1,0.5]];portConstraint=eastwest;" vertex="1" parent="gIUdPoAB92ztzNn0mDoF-25">
          <mxGeometry y="120" width="190" height="30" as="geometry" />
        </mxCell>
        <mxCell id="gIUdPoAB92ztzNn0mDoF-36" value="&lt;i&gt;&lt;font face=&quot;Courier New&quot;&gt;i&lt;/font&gt;&lt;/i&gt;" style="shape=partialRectangle;html=1;whiteSpace=wrap;connectable=0;strokeColor=inherit;overflow=hidden;fillColor=none;top=0;left=0;bottom=0;right=0;pointerEvents=1;" vertex="1" parent="gIUdPoAB92ztzNn0mDoF-35">
          <mxGeometry width="25" height="30" as="geometry">
            <mxRectangle width="25" height="30" as="alternateBounds" />
          </mxGeometry>
        </mxCell>
        <mxCell id="gIUdPoAB92ztzNn0mDoF-37" value="&lt;span style=&quot;font-family: &amp;quot;Courier New&amp;quot;;&quot;&gt;&amp;nbsp;INHERITED METHOD&lt;/span&gt;" style="shape=partialRectangle;html=1;whiteSpace=wrap;connectable=0;strokeColor=inherit;overflow=hidden;fillColor=none;top=0;left=0;bottom=0;right=0;pointerEvents=1;align=left;" vertex="1" parent="gIUdPoAB92ztzNn0mDoF-35">
          <mxGeometry x="25" width="165" height="30" as="geometry">
            <mxRectangle width="165" height="30" as="alternateBounds" />
          </mxGeometry>
        </mxCell>
        <mxCell id="gIUdPoAB92ztzNn0mDoF-40" value="&lt;&lt;dataType&gt;&gt;&#xa;EntityStruct&#xa;{class}" style="swimlane;fontStyle=2;align=center;verticalAlign=top;childLayout=stackLayout;horizontal=1;startSize=60;horizontalStack=0;resizeParent=1;resizeLast=0;collapsible=1;marginBottom=0;rounded=0;shadow=0;strokeWidth=1;fillColor=#e1d5e7;strokeColor=#9673a6;fontFamily=Courier New;" vertex="1" parent="WIyWlLk6GJQsqaUBKTNV-1">
          <mxGeometry x="340" y="380" width="300" height="340" as="geometry">
            <mxRectangle x="220" y="80" width="160" height="26" as="alternateBounds" />
          </mxGeometry>
        </mxCell>
        <mxCell id="gIUdPoAB92ztzNn0mDoF-60" value="i table = db_config.entities_tablei id_alias = &quot;id&quot;&#xa;i excluded_fields = []&#xa;i lifespan = data_config.entity_lifespan&#xa;i lifespan_attr = &quot;last_linked&quot;&#xa;&#xa;i id: string&#xa;&#xa;+ keywords: list[string]&#xa;+ wiki_url: string&#xa;+ twitter_url: string&#xa;+ last_linked: datetime.date = None" style="text;align=left;verticalAlign=top;spacingLeft=4;spacingRight=4;overflow=hidden;rotatable=0;points=[[0,0.5],[1,0.5]];portConstraint=eastwest;fontFamily=Courier New;spacingTop=0;" vertex="1" parent="gIUdPoAB92ztzNn0mDoF-40">
          <mxGeometry y="60" width="300" height="160" as="geometry" />
        </mxCell>
        <mxCell id="gIUdPoAB92ztzNn0mDoF-42" value="" style="line;html=1;strokeWidth=1;align=left;verticalAlign=middle;spacingTop=-1;spacingLeft=3;spacingRight=3;rotatable=0;labelPosition=right;points=[];portConstraint=eastwest;" vertex="1" parent="gIUdPoAB92ztzNn0mDoF-40">
          <mxGeometry y="220" width="300" height="8" as="geometry" />
        </mxCell>
        <mxCell id="gIUdPoAB92ztzNn0mDoF-43" value="i is_in_db(): bool&#xa;i load_from_db(): EntityStruct&#xa;i load_all_from_db(): list[EntityStruct]&#xa;i purge_db(): void&#xa;&#xa;i get_table_vars(): tuple&#xa;i insert_into_db(): void" style="text;align=left;verticalAlign=top;spacingLeft=4;spacingRight=4;overflow=hidden;rotatable=0;points=[[0,0.5],[1,0.5]];portConstraint=eastwest;fontFamily=Courier New;" vertex="1" parent="gIUdPoAB92ztzNn0mDoF-40">
          <mxGeometry y="228" width="300" height="112" as="geometry" />
        </mxCell>
        <mxCell id="gIUdPoAB92ztzNn0mDoF-64" value="&lt;&lt;dataType&gt;&gt;&#xa;ArticleStruct&#xa;{class}" style="swimlane;fontStyle=2;align=center;verticalAlign=top;childLayout=stackLayout;horizontal=1;startSize=60;horizontalStack=0;resizeParent=1;resizeLast=0;collapsible=1;marginBottom=0;rounded=0;shadow=0;strokeWidth=1;fillColor=#e1d5e7;strokeColor=#9673a6;fontFamily=Courier New;" vertex="1" parent="WIyWlLk6GJQsqaUBKTNV-1">
          <mxGeometry x="650" y="380" width="310" height="330" as="geometry">
            <mxRectangle x="220" y="80" width="160" height="26" as="alternateBounds" />
          </mxGeometry>
        </mxCell>
        <mxCell id="gIUdPoAB92ztzNn0mDoF-68" value="i table = db_config.articles_tablei id_alias = &quot;url&quot;&#xa;i excluded_fields = []&#xa;i lifespan_attr = &quot;last_linked&quot;&#xa;i lifespan = data_config.article_lifespan&#xa;&#xa;i id: string&#xa;&#xa;+ source: string&#xa;+ published_date: datetime.date&#xa;+ last_linked: datetime.date = None" style="text;align=left;verticalAlign=top;spacingLeft=4;spacingRight=4;overflow=hidden;rotatable=0;points=[[0,0.5],[1,0.5]];portConstraint=eastwest;fontFamily=Courier New;spacingTop=0;" vertex="1" parent="gIUdPoAB92ztzNn0mDoF-64">
          <mxGeometry y="60" width="310" height="150" as="geometry" />
        </mxCell>
        <mxCell id="gIUdPoAB92ztzNn0mDoF-69" value="" style="line;html=1;strokeWidth=1;align=left;verticalAlign=middle;spacingTop=-1;spacingLeft=3;spacingRight=3;rotatable=0;labelPosition=right;points=[];portConstraint=eastwest;" vertex="1" parent="gIUdPoAB92ztzNn0mDoF-64">
          <mxGeometry y="210" width="310" height="8" as="geometry" />
        </mxCell>
        <mxCell id="gIUdPoAB92ztzNn0mDoF-70" value="i is_in_db(): bool&#xa;i load_from_db(): ArticleStruct&#xa;i load_all_from_db(): list[ArticleStruct]&#xa;i purge_db(): void&#xa;&#xa;i get_table_vars(): tuple&#xa;i insert_into_db(): void" style="text;align=left;verticalAlign=top;spacingLeft=4;spacingRight=4;overflow=hidden;rotatable=0;points=[[0,0.5],[1,0.5]];portConstraint=eastwest;fontFamily=Courier New;" vertex="1" parent="gIUdPoAB92ztzNn0mDoF-64">
          <mxGeometry y="218" width="310" height="112" as="geometry" />
        </mxCell>
        <mxCell id="gIUdPoAB92ztzNn0mDoF-71" value="&lt;&lt;dataType&gt;&gt;&#xa;TrendStruct&#xa;{class}" style="swimlane;fontStyle=2;align=center;verticalAlign=top;childLayout=stackLayout;horizontal=1;startSize=60;horizontalStack=0;resizeParent=1;resizeLast=0;collapsible=1;marginBottom=0;rounded=0;shadow=0;strokeWidth=1;fillColor=#e1d5e7;strokeColor=#9673a6;fontFamily=Courier New;" vertex="1" parent="WIyWlLk6GJQsqaUBKTNV-1">
          <mxGeometry x="10" y="380" width="320" height="440" as="geometry">
            <mxRectangle x="220" y="80" width="160" height="26" as="alternateBounds" />
          </mxGeometry>
        </mxCell>
        <mxCell id="gIUdPoAB92ztzNn0mDoF-75" value="i table = db_config.trends_table&#xa;i id_alias = &quot;topic&quot;&#xa;i excluded_fields = [&quot;entities&quot;, &quot;articles&quot;]&#xa;i lifespan_attr = &quot;started_trending&quot;&#xa;i lifespan = data_config.trend_lifespan&#xa;&#xa;i id: string&#xa;&#xa;+ started_trending: datetime.date = None&#xa;+ entities: list[EntityStruct]&#xa;+ articles: list[ArticleStruct]" style="text;align=left;verticalAlign=top;spacingLeft=4;spacingRight=4;overflow=hidden;rotatable=0;points=[[0,0.5],[1,0.5]];portConstraint=eastwest;fontFamily=Courier New;spacingTop=0;" vertex="1" parent="gIUdPoAB92ztzNn0mDoF-71">
          <mxGeometry y="60" width="320" height="160" as="geometry" />
        </mxCell>
        <mxCell id="gIUdPoAB92ztzNn0mDoF-76" value="" style="line;html=1;strokeWidth=1;align=left;verticalAlign=middle;spacingTop=-1;spacingLeft=3;spacingRight=3;rotatable=0;labelPosition=right;points=[];portConstraint=eastwest;" vertex="1" parent="gIUdPoAB92ztzNn0mDoF-71">
          <mxGeometry y="220" width="320" height="8" as="geometry" />
        </mxCell>
        <mxCell id="gIUdPoAB92ztzNn0mDoF-77" value="i is_in_db(): bool&#xa;i load_from_db(): TrendStruct&#xa;i load_all_from_db(): list[TrendStruct]&#xa;i purge_db(): void&#xa;&#xa;i get_table_vars(): tuple&#xa;i insert_into_db(): void&#xa;&#xa;/ load_all_with_kw(): list[TrendStruct]&#xa;/ get_topic_entities(): list[EntityStruct]&#xa;/ get_topic_articles(): list[ArticleStruct]&#xa;&#xa;+ affirm_db_entity_link(): void&#xa;+ affirm_db_article_link(): void" style="text;align=left;verticalAlign=top;spacingLeft=4;spacingRight=4;overflow=hidden;rotatable=0;points=[[0,0.5],[1,0.5]];portConstraint=eastwest;fontFamily=Courier New;" vertex="1" parent="gIUdPoAB92ztzNn0mDoF-71">
          <mxGeometry y="228" width="320" height="212" as="geometry" />
        </mxCell>
        <mxCell id="gIUdPoAB92ztzNn0mDoF-94" style="edgeStyle=orthogonalEdgeStyle;rounded=0;orthogonalLoop=1;jettySize=auto;html=1;exitX=0.5;exitY=1;exitDx=0;exitDy=0;" edge="1" parent="WIyWlLk6GJQsqaUBKTNV-1" source="gIUdPoAB92ztzNn0mDoF-92" target="gIUdPoAB92ztzNn0mDoF-64">
          <mxGeometry relative="1" as="geometry" />
        </mxCell>
        <mxCell id="gIUdPoAB92ztzNn0mDoF-95" style="edgeStyle=orthogonalEdgeStyle;rounded=0;orthogonalLoop=1;jettySize=auto;html=1;exitX=0.5;exitY=1;exitDx=0;exitDy=0;" edge="1" parent="WIyWlLk6GJQsqaUBKTNV-1" source="gIUdPoAB92ztzNn0mDoF-92" target="gIUdPoAB92ztzNn0mDoF-71">
          <mxGeometry relative="1" as="geometry" />
        </mxCell>
        <mxCell id="gIUdPoAB92ztzNn0mDoF-92" value="" style="rounded=0;whiteSpace=wrap;html=1;fillColor=none;strokeColor=none;" vertex="1" parent="WIyWlLk6GJQsqaUBKTNV-1">
          <mxGeometry x="338" y="240" width="300" height="60" as="geometry" />
        </mxCell>
        <mxCell id="gIUdPoAB92ztzNn0mDoF-93" style="edgeStyle=orthogonalEdgeStyle;rounded=0;orthogonalLoop=1;jettySize=auto;html=1;exitX=0.5;exitY=1;exitDx=0;exitDy=0;entryX=0.493;entryY=0.016;entryDx=0;entryDy=0;entryPerimeter=0;" edge="1" parent="WIyWlLk6GJQsqaUBKTNV-1" source="gIUdPoAB92ztzNn0mDoF-92" target="gIUdPoAB92ztzNn0mDoF-40">
          <mxGeometry relative="1" as="geometry" />
        </mxCell>
        <mxCell id="gIUdPoAB92ztzNn0mDoF-96" value="&lt;span&gt;&lt;font face=&quot;Courier New&quot;&gt;INHERITED BY&lt;/font&gt;&lt;/span&gt;" style="edgeLabel;html=1;align=center;verticalAlign=middle;resizable=0;points=[];" vertex="1" connectable="0" parent="gIUdPoAB92ztzNn0mDoF-93">
          <mxGeometry x="-0.0996" relative="1" as="geometry">
            <mxPoint as="offset" />
          </mxGeometry>
        </mxCell>
        <mxCell id="gIUdPoAB92ztzNn0mDoF-97" value="&lt;&lt;dataType&gt;&gt;&#xa;PostBody&#xa;{class}" style="swimlane;fontStyle=2;align=center;verticalAlign=top;childLayout=stackLayout;horizontal=1;startSize=60;horizontalStack=0;resizeParent=1;resizeLast=0;collapsible=1;marginBottom=0;rounded=0;shadow=0;strokeWidth=1;fillColor=#e1d5e7;strokeColor=#9673a6;fontFamily=Courier New;" vertex="1" parent="WIyWlLk6GJQsqaUBKTNV-1">
          <mxGeometry x="639" y="807" width="300" height="90" as="geometry">
            <mxRectangle x="220" y="80" width="160" height="26" as="alternateBounds" />
          </mxGeometry>
        </mxCell>
        <mxCell id="gIUdPoAB92ztzNn0mDoF-98" value="+ text: string" style="text;align=left;verticalAlign=top;spacingLeft=4;spacingRight=4;overflow=hidden;rotatable=0;points=[[0,0.5],[1,0.5]];portConstraint=eastwest;fontFamily=Courier New;" vertex="1" parent="gIUdPoAB92ztzNn0mDoF-97">
          <mxGeometry y="60" width="300" height="30" as="geometry" />
        </mxCell>
        <mxCell id="gIUdPoAB92ztzNn0mDoF-110" style="edgeStyle=orthogonalEdgeStyle;rounded=0;orthogonalLoop=1;jettySize=auto;html=1;exitX=0.5;exitY=1;exitDx=0;exitDy=0;entryX=0.5;entryY=0;entryDx=0;entryDy=0;" edge="1" parent="WIyWlLk6GJQsqaUBKTNV-1" source="gIUdPoAB92ztzNn0mDoF-101" target="gIUdPoAB92ztzNn0mDoF-106">
          <mxGeometry relative="1" as="geometry" />
        </mxCell>
        <mxCell id="gIUdPoAB92ztzNn0mDoF-111" style="edgeStyle=orthogonalEdgeStyle;rounded=0;orthogonalLoop=1;jettySize=auto;html=1;exitX=0.5;exitY=1;exitDx=0;exitDy=0;entryX=0.5;entryY=0;entryDx=0;entryDy=0;" edge="1" parent="WIyWlLk6GJQsqaUBKTNV-1" source="gIUdPoAB92ztzNn0mDoF-101" target="gIUdPoAB92ztzNn0mDoF-102">
          <mxGeometry relative="1" as="geometry" />
        </mxCell>
        <mxCell id="gIUdPoAB92ztzNn0mDoF-113" style="edgeStyle=orthogonalEdgeStyle;rounded=0;orthogonalLoop=1;jettySize=auto;html=1;exitX=0.5;exitY=1;exitDx=0;exitDy=0;entryX=0.5;entryY=0;entryDx=0;entryDy=0;" edge="1" parent="WIyWlLk6GJQsqaUBKTNV-1" source="gIUdPoAB92ztzNn0mDoF-101" target="gIUdPoAB92ztzNn0mDoF-104">
          <mxGeometry relative="1" as="geometry" />
        </mxCell>
        <mxCell id="gIUdPoAB92ztzNn0mDoF-114" style="edgeStyle=orthogonalEdgeStyle;rounded=0;orthogonalLoop=1;jettySize=auto;html=1;exitX=1;exitY=0.5;exitDx=0;exitDy=0;entryX=0;entryY=0.5;entryDx=0;entryDy=0;" edge="1" parent="WIyWlLk6GJQsqaUBKTNV-1" source="gIUdPoAB92ztzNn0mDoF-101" target="gIUdPoAB92ztzNn0mDoF-108">
          <mxGeometry relative="1" as="geometry" />
        </mxCell>
        <mxCell id="gIUdPoAB92ztzNn0mDoF-115" style="edgeStyle=orthogonalEdgeStyle;rounded=0;orthogonalLoop=1;jettySize=auto;html=1;exitX=1;exitY=0.5;exitDx=0;exitDy=0;entryX=0;entryY=0.5;entryDx=0;entryDy=0;" edge="1" parent="WIyWlLk6GJQsqaUBKTNV-1" source="gIUdPoAB92ztzNn0mDoF-101" target="gIUdPoAB92ztzNn0mDoF-97">
          <mxGeometry relative="1" as="geometry" />
        </mxCell>
        <mxCell id="gIUdPoAB92ztzNn0mDoF-101" value="&lt;div&gt;&lt;font face=&quot;Courier New&quot; style=&quot;font-size: 10px;&quot;&gt;&amp;lt;&amp;lt;dataType&amp;gt;&amp;gt;&lt;/font&gt;&lt;/div&gt;&lt;div&gt;&lt;font size=&quot;1&quot; face=&quot;Courier New&quot;&gt;pydantic.BaseModel&lt;/font&gt;&lt;/div&gt;&lt;div&gt;&lt;font face=&quot;Courier New&quot; size=&quot;1&quot;&gt;{class}&lt;/font&gt;&lt;/div&gt;" style="rounded=0;whiteSpace=wrap;html=1;fillColor=#e1d5e7;strokeColor=#9673a6;" vertex="1" parent="WIyWlLk6GJQsqaUBKTNV-1">
          <mxGeometry x="419" y="922" width="120" height="60" as="geometry" />
        </mxCell>
        <mxCell id="gIUdPoAB92ztzNn0mDoF-102" value="&lt;&lt;dataType&gt;&gt;&#xa;EntityData&#xa;{class}" style="swimlane;fontStyle=2;align=center;verticalAlign=top;childLayout=stackLayout;horizontal=1;startSize=60;horizontalStack=0;resizeParent=1;resizeLast=0;collapsible=1;marginBottom=0;rounded=0;shadow=0;strokeWidth=1;fillColor=#e1d5e7;strokeColor=#9673a6;fontFamily=Courier New;" vertex="1" parent="WIyWlLk6GJQsqaUBKTNV-1">
          <mxGeometry x="329" y="1069" width="300" height="100" as="geometry">
            <mxRectangle x="220" y="80" width="160" height="26" as="alternateBounds" />
          </mxGeometry>
        </mxCell>
        <mxCell id="gIUdPoAB92ztzNn0mDoF-103" value="+ wiki_url: string&#xa;+ twitter_url: string" style="text;align=left;verticalAlign=top;spacingLeft=4;spacingRight=4;overflow=hidden;rotatable=0;points=[[0,0.5],[1,0.5]];portConstraint=eastwest;fontFamily=Courier New;" vertex="1" parent="gIUdPoAB92ztzNn0mDoF-102">
          <mxGeometry y="60" width="300" height="40" as="geometry" />
        </mxCell>
        <mxCell id="gIUdPoAB92ztzNn0mDoF-104" value="&lt;&lt;dataType&gt;&gt;&#xa;EntityData&#xa;{class}" style="swimlane;fontStyle=2;align=center;verticalAlign=top;childLayout=stackLayout;horizontal=1;startSize=60;horizontalStack=0;resizeParent=1;resizeLast=0;collapsible=1;marginBottom=0;rounded=0;shadow=0;strokeWidth=1;fillColor=#e1d5e7;strokeColor=#9673a6;fontFamily=Courier New;" vertex="1" parent="WIyWlLk6GJQsqaUBKTNV-1">
          <mxGeometry x="639" y="1069" width="300" height="120" as="geometry">
            <mxRectangle x="220" y="80" width="160" height="26" as="alternateBounds" />
          </mxGeometry>
        </mxCell>
        <mxCell id="gIUdPoAB92ztzNn0mDoF-105" value="+ url: string&#xa;+ source: string&#xa;+ published: string" style="text;align=left;verticalAlign=top;spacingLeft=4;spacingRight=4;overflow=hidden;rotatable=0;points=[[0,0.5],[1,0.5]];portConstraint=eastwest;fontFamily=Courier New;" vertex="1" parent="gIUdPoAB92ztzNn0mDoF-104">
          <mxGeometry y="60" width="300" height="60" as="geometry" />
        </mxCell>
        <mxCell id="gIUdPoAB92ztzNn0mDoF-106" value="&lt;&lt;dataType&gt;&gt;&#xa;TrendData&#xa;{class}" style="swimlane;fontStyle=2;align=center;verticalAlign=top;childLayout=stackLayout;horizontal=1;startSize=60;horizontalStack=0;resizeParent=1;resizeLast=0;collapsible=1;marginBottom=0;rounded=0;shadow=0;strokeWidth=1;fillColor=#e1d5e7;strokeColor=#9673a6;fontFamily=Courier New;" vertex="1" parent="WIyWlLk6GJQsqaUBKTNV-1">
          <mxGeometry x="9" y="1069" width="310" height="130" as="geometry">
            <mxRectangle x="220" y="80" width="160" height="26" as="alternateBounds" />
          </mxGeometry>
        </mxCell>
        <mxCell id="gIUdPoAB92ztzNn0mDoF-107" value="+ topic: string&#xa;+ instances: list[string]&#xa;+ entities: list[EntityData]&#xa;+ articles: list[ArticleData]&#xa;" style="text;align=left;verticalAlign=top;spacingLeft=4;spacingRight=4;overflow=hidden;rotatable=0;points=[[0,0.5],[1,0.5]];portConstraint=eastwest;fontFamily=Courier New;" vertex="1" parent="gIUdPoAB92ztzNn0mDoF-106">
          <mxGeometry y="60" width="310" height="70" as="geometry" />
        </mxCell>
        <mxCell id="gIUdPoAB92ztzNn0mDoF-108" value="&lt;&lt;dataType&gt;&gt;&#xa;APIResponse&#xa;{class}" style="swimlane;fontStyle=2;align=center;verticalAlign=top;childLayout=stackLayout;horizontal=1;startSize=60;horizontalStack=0;resizeParent=1;resizeLast=0;collapsible=1;marginBottom=0;rounded=0;shadow=0;strokeWidth=1;fillColor=#e1d5e7;strokeColor=#9673a6;fontFamily=Courier New;" vertex="1" parent="WIyWlLk6GJQsqaUBKTNV-1">
          <mxGeometry x="639" y="907" width="300" height="90" as="geometry">
            <mxRectangle x="220" y="80" width="160" height="26" as="alternateBounds" />
          </mxGeometry>
        </mxCell>
        <mxCell id="gIUdPoAB92ztzNn0mDoF-109" value="+ topics : list[TrendData]" style="text;align=left;verticalAlign=top;spacingLeft=4;spacingRight=4;overflow=hidden;rotatable=0;points=[[0,0.5],[1,0.5]];portConstraint=eastwest;fontFamily=Courier New;" vertex="1" parent="gIUdPoAB92ztzNn0mDoF-108">
          <mxGeometry y="60" width="300" height="30" as="geometry" />
        </mxCell>
        <mxCell id="gIUdPoAB92ztzNn0mDoF-116" value="&lt;span&gt;&lt;font face=&quot;Courier New&quot;&gt;INHERITED BY&lt;/font&gt;&lt;/span&gt;" style="edgeLabel;html=1;align=center;verticalAlign=middle;resizable=0;points=[];" vertex="1" connectable="0" parent="WIyWlLk6GJQsqaUBKTNV-1">
          <mxGeometry x="479" y="1024.0014285714285" as="geometry" />
        </mxCell>
        <mxCell id="gIUdPoAB92ztzNn0mDoF-118" value="&lt;span&gt;&lt;font face=&quot;Courier New&quot;&gt;INHERITED BY&lt;/font&gt;&lt;/span&gt;" style="edgeLabel;html=1;align=center;verticalAlign=middle;resizable=0;points=[];rotation=-90;" vertex="1" connectable="0" parent="WIyWlLk6GJQsqaUBKTNV-1">
          <mxGeometry x="588" y="903.0014285714285" as="geometry" />
        </mxCell>
        <mxCell id="gIUdPoAB92ztzNn0mDoF-120" value="&lt;&lt;entity&gt;&gt;&#xa;AIFunction&#xa;{class}" style="swimlane;fontStyle=2;align=center;verticalAlign=top;childLayout=stackLayout;horizontal=1;startSize=60;horizontalStack=0;resizeParent=1;resizeLast=0;collapsible=1;marginBottom=0;rounded=0;shadow=0;strokeWidth=1;fillColor=#fff2cc;strokeColor=#d6b656;fontFamily=Courier New;" vertex="1" parent="WIyWlLk6GJQsqaUBKTNV-1">
          <mxGeometry x="179" y="1239" width="300" height="160" as="geometry">
            <mxRectangle x="220" y="80" width="160" height="26" as="alternateBounds" />
          </mxGeometry>
        </mxCell>
        <mxCell id="gIUdPoAB92ztzNn0mDoF-121" value="- prompt: typing.Callable&#xa;&#xa;+ obj_id: string" style="text;align=left;verticalAlign=top;spacingLeft=4;spacingRight=4;overflow=hidden;rotatable=0;points=[[0,0.5],[1,0.5]];portConstraint=eastwest;fontFamily=Courier New;" vertex="1" parent="gIUdPoAB92ztzNn0mDoF-120">
          <mxGeometry y="60" width="300" height="60" as="geometry" />
        </mxCell>
        <mxCell id="gIUdPoAB92ztzNn0mDoF-122" value="" style="line;html=1;strokeWidth=1;align=left;verticalAlign=middle;spacingTop=-1;spacingLeft=3;spacingRight=3;rotatable=0;labelPosition=right;points=[];portConstraint=eastwest;" vertex="1" parent="gIUdPoAB92ztzNn0mDoF-120">
          <mxGeometry y="120" width="300" height="8" as="geometry" />
        </mxCell>
        <mxCell id="gIUdPoAB92ztzNn0mDoF-123" value="+ stringed(): string" style="text;align=left;verticalAlign=top;spacingLeft=4;spacingRight=4;overflow=hidden;rotatable=0;points=[[0,0.5],[1,0.5]];portConstraint=eastwest;fontFamily=Courier New;" vertex="1" parent="gIUdPoAB92ztzNn0mDoF-120">
          <mxGeometry y="128" width="300" height="32" as="geometry" />
        </mxCell>
        <mxCell id="gIUdPoAB92ztzNn0mDoF-124" value="&lt;&lt;entity&gt;&gt;&#xa;AIFunction&#xa;{class}" style="swimlane;fontStyle=2;align=center;verticalAlign=top;childLayout=stackLayout;horizontal=1;startSize=60;horizontalStack=0;resizeParent=1;resizeLast=0;collapsible=1;marginBottom=0;rounded=0;shadow=0;strokeWidth=1;fillColor=#fff2cc;strokeColor=#d6b656;fontFamily=Courier New;" vertex="1" parent="WIyWlLk6GJQsqaUBKTNV-1">
          <mxGeometry x="9" y="1489" width="301" height="160" as="geometry">
            <mxRectangle x="220" y="80" width="160" height="26" as="alternateBounds" />
          </mxGeometry>
        </mxCell>
        <UserObject label="i prompt: string&#xa;&#xa;i obj_id: string" link="https://github.com/JamieLevitt/CiteThis/blob/c1d03b64c0a138fa8f9dc9e429e70ad07d2a77c0/Backend/data/aitools/google_genai_funcs.py#L16-L36" linkTarget="_blank" id="gIUdPoAB92ztzNn0mDoF-139">
          <mxCell style="text;align=left;verticalAlign=top;spacingLeft=4;spacingRight=4;overflow=hidden;rotatable=0;points=[[0,0.5],[1,0.5]];portConstraint=eastwest;fontFamily=Courier New;spacingTop=-4;" vertex="1" parent="gIUdPoAB92ztzNn0mDoF-124">
            <mxGeometry y="60" width="301" height="50" as="geometry" />
          </mxCell>
        </UserObject>
        <mxCell id="gIUdPoAB92ztzNn0mDoF-126" value="" style="line;html=1;strokeWidth=1;align=left;verticalAlign=middle;spacingTop=-1;spacingLeft=3;spacingRight=3;rotatable=0;labelPosition=right;points=[];portConstraint=eastwest;" vertex="1" parent="gIUdPoAB92ztzNn0mDoF-124">
          <mxGeometry y="110" width="301" height="8" as="geometry" />
        </mxCell>
        <mxCell id="gIUdPoAB92ztzNn0mDoF-127" value="i stringed(): string" style="text;align=left;verticalAlign=top;spacingLeft=4;spacingRight=4;overflow=hidden;rotatable=0;points=[[0,0.5],[1,0.5]];portConstraint=eastwest;fontFamily=Courier New;" vertex="1" parent="gIUdPoAB92ztzNn0mDoF-124">
          <mxGeometry y="118" width="301" height="32" as="geometry" />
        </mxCell>
        <mxCell id="gIUdPoAB92ztzNn0mDoF-128" value="&lt;&lt;entity&gt;&gt;&#xa;AIFunction&#xa;{class}" style="swimlane;fontStyle=2;align=center;verticalAlign=top;childLayout=stackLayout;horizontal=1;startSize=60;horizontalStack=0;resizeParent=1;resizeLast=0;collapsible=1;marginBottom=0;rounded=0;shadow=0;strokeWidth=1;fillColor=#fff2cc;strokeColor=#d6b656;fontFamily=Courier New;" vertex="1" parent="WIyWlLk6GJQsqaUBKTNV-1">
          <mxGeometry x="330" y="1489" width="300" height="160" as="geometry">
            <mxRectangle x="220" y="80" width="160" height="26" as="alternateBounds" />
          </mxGeometry>
        </mxCell>
        <UserObject label="i prompt: string&#xa;&#xa;i obj_id: string" link="https://github.com/JamieLevitt/CiteThis/blob/c1d03b64c0a138fa8f9dc9e429e70ad07d2a77c0/Backend/data/aitools/google_genai_funcs.py#L16-L36" linkTarget="_blank" id="gIUdPoAB92ztzNn0mDoF-146">
          <mxCell style="text;align=left;verticalAlign=top;spacingLeft=4;spacingRight=4;overflow=hidden;rotatable=0;points=[[0,0.5],[1,0.5]];portConstraint=eastwest;fontFamily=Courier New;spacingTop=-4;" vertex="1" parent="gIUdPoAB92ztzNn0mDoF-128">
            <mxGeometry y="60" width="300" height="50" as="geometry" />
          </mxCell>
        </UserObject>
        <mxCell id="gIUdPoAB92ztzNn0mDoF-130" value="" style="line;html=1;strokeWidth=1;align=left;verticalAlign=middle;spacingTop=-1;spacingLeft=3;spacingRight=3;rotatable=0;labelPosition=right;points=[];portConstraint=eastwest;" vertex="1" parent="gIUdPoAB92ztzNn0mDoF-128">
          <mxGeometry y="110" width="300" height="8" as="geometry" />
        </mxCell>
        <mxCell id="gIUdPoAB92ztzNn0mDoF-131" value="i stringed(): string" style="text;align=left;verticalAlign=top;spacingLeft=4;spacingRight=4;overflow=hidden;rotatable=0;points=[[0,0.5],[1,0.5]];portConstraint=eastwest;fontFamily=Courier New;" vertex="1" parent="gIUdPoAB92ztzNn0mDoF-128">
          <mxGeometry y="118" width="300" height="32" as="geometry" />
        </mxCell>
        <mxCell id="gIUdPoAB92ztzNn0mDoF-135" style="edgeStyle=orthogonalEdgeStyle;rounded=0;orthogonalLoop=1;jettySize=auto;html=1;exitX=0.5;exitY=1;exitDx=0;exitDy=0;entryX=0.5;entryY=0;entryDx=0;entryDy=0;" edge="1" parent="WIyWlLk6GJQsqaUBKTNV-1" source="gIUdPoAB92ztzNn0mDoF-132" target="gIUdPoAB92ztzNn0mDoF-128">
          <mxGeometry relative="1" as="geometry" />
        </mxCell>
        <mxCell id="gIUdPoAB92ztzNn0mDoF-132" value="" style="rounded=0;whiteSpace=wrap;html=1;fillColor=none;strokeColor=none;" vertex="1" parent="WIyWlLk6GJQsqaUBKTNV-1">
          <mxGeometry x="178" y="1339" width="300" height="60" as="geometry" />
        </mxCell>
        <mxCell id="gIUdPoAB92ztzNn0mDoF-133" style="edgeStyle=orthogonalEdgeStyle;rounded=0;orthogonalLoop=1;jettySize=auto;html=1;exitX=0.5;exitY=1;exitDx=0;exitDy=0;entryX=0.5;entryY=0;entryDx=0;entryDy=0;" edge="1" parent="WIyWlLk6GJQsqaUBKTNV-1" source="gIUdPoAB92ztzNn0mDoF-132" target="gIUdPoAB92ztzNn0mDoF-124">
          <mxGeometry relative="1" as="geometry">
            <mxPoint x="319" y="1399" as="sourcePoint" />
            <mxPoint x="200" y="1469" as="targetPoint" />
          </mxGeometry>
        </mxCell>
        <mxCell id="gIUdPoAB92ztzNn0mDoF-136" value="&lt;span&gt;&lt;font face=&quot;Courier New&quot;&gt;INHERITED BY&lt;/font&gt;&lt;/span&gt;" style="edgeLabel;html=1;align=center;verticalAlign=middle;resizable=0;points=[];" vertex="1" connectable="0" parent="WIyWlLk6GJQsqaUBKTNV-1">
          <mxGeometry x="328" y="1445.0014285714285" as="geometry" />
        </mxCell>
        <mxCell id="gIUdPoAB92ztzNn0mDoF-141" value="&lt;&lt;entity&gt;&gt;&#xa;AIFunction&#xa;{class}" style="swimlane;fontStyle=2;align=center;verticalAlign=top;childLayout=stackLayout;horizontal=1;startSize=60;horizontalStack=0;resizeParent=1;resizeLast=0;collapsible=1;marginBottom=0;rounded=0;shadow=0;strokeWidth=1;fillColor=#fff2cc;strokeColor=#d6b656;fontFamily=Courier New;" vertex="1" parent="WIyWlLk6GJQsqaUBKTNV-1">
          <mxGeometry x="570" y="1239" width="300" height="170" as="geometry">
            <mxRectangle x="220" y="80" width="160" height="26" as="alternateBounds" />
          </mxGeometry>
        </mxCell>
        <mxCell id="gIUdPoAB92ztzNn0mDoF-142" value="+ __func: AIFunction&#xa;+ response: dict&#xa;+ request_succesful: bool&#xa;" style="text;align=left;verticalAlign=top;spacingLeft=4;spacingRight=4;overflow=hidden;rotatable=0;points=[[0,0.5],[1,0.5]];portConstraint=eastwest;fontFamily=Courier New;" vertex="1" parent="gIUdPoAB92ztzNn0mDoF-141">
          <mxGeometry y="60" width="300" height="60" as="geometry" />
        </mxCell>
        <mxCell id="gIUdPoAB92ztzNn0mDoF-143" value="" style="line;html=1;strokeWidth=1;align=left;verticalAlign=middle;spacingTop=-1;spacingLeft=3;spacingRight=3;rotatable=0;labelPosition=right;points=[];portConstraint=eastwest;" vertex="1" parent="gIUdPoAB92ztzNn0mDoF-141">
          <mxGeometry y="120" width="300" height="8" as="geometry" />
        </mxCell>
        <mxCell id="gIUdPoAB92ztzNn0mDoF-144" value="+ __call(): void&#xa;+__parse_resp(): void&#xa;" style="text;align=left;verticalAlign=top;spacingLeft=4;spacingRight=4;overflow=hidden;rotatable=0;points=[[0,0.5],[1,0.5]];portConstraint=eastwest;fontFamily=Courier New;" vertex="1" parent="gIUdPoAB92ztzNn0mDoF-141">
          <mxGeometry y="128" width="300" height="42" as="geometry" />
        </mxCell>
      </root>
    </mxGraphModel>
  </diagram>
</mxfile>
